<svg xmlns="http://www.w3.org/2000/svg" xmlns:xlink="http://www.w3.org/1999/xlink" fill="none" version="1.1" width="24" height="24" viewBox="0 0 24 24"><defs><mask id="master_svg0_0_1272"><g><path d="M2,2.000499963760376C2,2.000499963760376,21.2849,2.000499963760376,21.2849,2.000499963760376C21.2849,2.000499963760376,21.2849,22.721499963760376,21.2849,22.721499963760376C21.2849,22.721499963760376,2,22.721499963760376,2,22.721499963760376C2,22.721499963760376,2,2.000499963760376,2,2.000499963760376C2,2.000499963760376,2,2.000499963760376,2,2.000499963760376Z" fill-rule="evenodd" fill="#FFFFFF" fill-opacity="1"/></g></mask></defs><g><g><g mask="url(#master_svg0_0_1272)"><g><path d="M7.202200417024542,17.440499963760374C7.4312004170245425,17.440499963760374,7.660200417024542,17.469499963760377,7.884200417024542,17.529499963760376C8.560200417024543,17.711499963760374,9.147200417024543,18.163499963760376,9.495200417024542,18.770499963760376C9.721200417024543,19.151499963760376,9.846200417024543,19.596499963760376,9.850200417024542,20.050499963760377C9.850200417024542,20.700499963760375,10.372200417024542,21.221499963760376,11.014200417024542,21.221499963760376C11.014200417024542,21.221499963760376,12.267180417024543,21.221499963760376,12.267180417024543,21.221499963760376C12.906180417024542,21.221499963760376,13.428180417024542,20.703499963760375,13.431180417024542,20.064499963760376C13.427180417024543,19.358499963760377,13.703180417024543,18.687499963760377,14.208180417024542,18.182499963760375C14.706180417024543,17.684499963760373,15.402180417024542,17.385499963760374,16.098180417024544,17.405499963760377C16.55418041702454,17.416499963760376,16.99318041702454,17.539499963760377,17.38018041702454,17.759499963760376C17.937180417024543,18.078499963760375,18.64818041702454,17.888499963760374,18.970180417024544,17.338499963760377C18.970180417024544,17.338499963760377,19.63418041702454,16.231499963760378,19.63418041702454,16.231499963760378C19.78218041702454,15.976499963760377,19.82518041702454,15.656499963760377,19.746180417024544,15.361499963760377C19.66818041702454,15.066499963760377,19.472180417024543,14.810499963760376,19.208180417024543,14.659499963760377C18.59018041702454,14.303499963760377,18.149180417024542,13.729499963760375,17.966180417024542,13.041499963760376C17.78518041702454,12.366499963760376,17.88418041702454,11.629499963760376,18.237180417024543,11.022499963760376C18.467180417024544,10.622499963760376,18.804180417024543,10.285499963760376,19.208180417024543,10.053499963760377C19.75018041702454,9.736499963760377,19.940180417024543,9.027499963760377,19.62518041702454,8.475499963760376C19.612180417024543,8.453499963760375,19.600180417024543,8.430499963760376,19.59018041702454,8.406499963760375C19.59018041702454,8.406499963760375,19.004180417024543,7.390499963760376,19.004180417024543,7.390499963760376C18.685180417024544,6.835499963760376,17.975180417024543,6.644499963760376,17.418180417024544,6.961499963760376C16.81618041702454,7.317499963760376,16.100180417024543,7.419499963760376,15.412180417024542,7.238499963760376C14.725180417024543,7.060499963760376,14.149180417024542,6.625499963760376,13.790180417024542,6.011499963760376C13.560180417024542,5.627499963760376,13.435180417024542,5.180499963760376,13.431180417024542,4.725499963760376C13.440180417024543,4.383499963760376,13.320180417024542,4.0764999637603765,13.102180417024542,3.851499963760376C12.885180417024543,3.6274999637603758,12.580180417024541,3.500499963760376,12.267180417024543,3.500499963760376C12.267180417024543,3.500499963760376,11.014200417024542,3.500499963760376,11.014200417024542,3.500499963760376C10.704200417024541,3.500499963760376,10.414200417024542,3.621499963760376,10.195200417024543,3.839499963760376C9.977200417024541,4.058499963760376,9.858200417024541,4.349499963760376,9.860200417024542,4.659499963760376C9.839200417024543,6.121499963760376,8.644200417024543,7.298499963760376,7.1972004170245425,7.298499963760376C6.733200417024542,7.293499963760376,6.286200417024542,7.168499963760376,5.898200417024542,6.936499963760376C5.353200417024542,6.626499963760376,4.6412004170245424,6.817499963760376,4.322200417024542,7.372499963760376C4.322200417024542,7.372499963760376,3.645200417024542,8.485499963760375,3.645200417024542,8.485499963760375C3.3352004170245424,9.023499963760376,3.525200417024542,9.734499963760376,4.077200417024542,10.055499963760376C4.8962004170245415,10.529499963760376,5.4072004170245425,11.413499963760376,5.4072004170245425,12.361499963760377C5.4072004170245425,13.309499963760375,4.8962004170245415,14.192499963760376,4.075200417024542,14.667499963760376C3.5262004170245422,14.985499963760375,3.336200417024542,15.692499963760376,3.6542004170245423,16.242499963760377C3.6542004170245423,16.242499963760377,4.285200417024543,17.330499963760374,4.285200417024543,17.330499963760374C4.441200417024542,17.611499963760377,4.696200417024542,17.814499963760376,4.991200417024542,17.897499963760374C5.285200417024543,17.979499963760375,5.609200417024542,17.94449996376038,5.879200417024542,17.794499963760376C6.276200417024542,17.561499963760376,6.738200417024542,17.440499963760374,7.202200417024542,17.440499963760374ZM12.267180417024543,22.721499963760376C12.267180417024543,22.721499963760376,11.014200417024542,22.721499963760376,11.014200417024542,22.721499963760376C9.545200417024542,22.721499963760376,8.350200417024542,21.527499963760377,8.350200417024542,20.058499963760376C8.348200417024543,19.877499963760375,8.296200417024542,19.689499963760376,8.199200417024542,19.526499963760376C8.042200417024542,19.252499963760375,7.788200417024542,19.056499963760377,7.4952004170245425,18.978499963760378C7.204200417024542,18.900499963760375,6.885200417024542,18.943499963760377,6.623200417024542,19.095499963760375C5.995200417024542,19.445499963760376,5.256200417024543,19.530499963760377,4.5802004170245425,19.340499963760376C3.905200417024542,19.149499963760377,3.322200417024542,18.685499963760375,2.980200417024542,18.070499963760376C2.980200417024542,18.070499963760376,2.355200417024542,16.993499963760378,2.355200417024542,16.993499963760378C1.624200417024542,15.725499963760376,2.059199917024542,14.100499963760376,3.325200417024542,13.368499963760376C3.684200417024542,13.161499963760376,3.907200417024542,12.775499963760376,3.907200417024542,12.361499963760377C3.907200417024542,11.947499963760375,3.684200417024542,11.560499963760376,3.325200417024542,11.353499963760376C2.058200017024542,10.617499963760377,1.624200417024542,8.988499963760376,2.354200417024542,7.720499963760376C2.354200417024542,7.720499963760376,3.032200417024542,6.607499963760376,3.032200417024542,6.607499963760376C3.753200417024542,5.353499963760376,5.3832004170245416,4.911499963760376,6.654200417024542,5.641499963760376C6.827200417024542,5.744499963760376,7.015200417024542,5.796499963760375,7.206200417024542,5.798499963760376C7.829200417024542,5.798499963760376,8.350200417024542,5.284499963760376,8.360200417024542,4.652499963760376C8.356200417024542,3.955499963760376,8.63120041702454,3.286499963760376,9.132200417024542,2.781499963760376C9.635200417024542,2.277499963760376,10.303200417024541,2.000499963760376,11.014200417024542,2.000499963760376C11.014200417024542,2.000499963760376,12.267180417024543,2.000499963760376,12.267180417024543,2.000499963760376C12.983180417024542,2.000499963760376,13.679180417024542,2.294499963760376,14.178180417024542,2.805499963760376C14.676180417024542,3.319499963760376,14.951180417024542,4.024499963760376,14.930180417024543,4.739499963760376C14.932180417024542,4.900499963760376,14.985180417024543,5.086499963760376,15.081180417024543,5.2494999637603765C15.240180417024542,5.519499963760376,15.491180417024543,5.709499963760376,15.789180417024543,5.787499963760376C16.08718041702454,5.861499963760377,16.399180417024542,5.821499963760376,16.664180417024543,5.664499963760376C17.94418041702454,4.933499963760376,19.573180417024542,5.371499963760376,20.304180417024543,6.641499963760376C20.304180417024543,6.641499963760376,20.92718041702454,7.720499963760376,20.92718041702454,7.720499963760376C20.943180417024543,7.749499963760376,20.957180417024542,7.777499963760376,20.969180417024543,7.806499963760376C21.63118041702454,9.057499963760376,21.18918041702454,10.632499963760376,19.95918041702454,11.351499963760377C19.780180417024543,11.454499963760377,19.635180417024543,11.598499963760377,19.53518041702454,11.772499963760376C19.38018041702454,12.041499963760376,19.33718041702454,12.361499963760377,19.41518041702454,12.655499963760375C19.495180417024542,12.955499963760376,19.68618041702454,13.204499963760377,19.955180417024543,13.358499963760377C20.562180417024543,13.707499963760377,21.015180417024542,14.295499963760376,21.196180417024543,14.974499963760376C21.377180417024544,15.652499963760375,21.278180417024544,16.388499963760374,20.925180417024542,16.995499963760373C20.925180417024542,16.995499963760373,20.26118041702454,18.101499963760375,20.26118041702454,18.101499963760375C19.530180417024543,19.357499963760375,17.90118041702454,19.792499963760378,16.63418041702454,19.060499963760375C16.46518041702454,18.963499963760377,16.27018041702454,18.910499963760376,16.076180417024542,18.905499963760377C16.076180417024542,18.905499963760377,16.07018041702454,18.905499963760377,16.07018041702454,18.905499963760377C15.781180417024542,18.905499963760377,15.484180417024541,19.028499963760375,15.268180417024542,19.243499963760375C15.049180417024543,19.462499963760376,14.929180417024542,19.754499963760377,14.931180417024542,20.064499963760376C14.924180417024543,21.533499963760377,13.729180417024542,22.721499963760376,12.267180417024543,22.721499963760376Z" fill-rule="evenodd" fill="#130F26" fill-opacity="1"/></g></g><g><path d="M11.645099960327148,10.474600076675415C10.605099960327149,10.474600076675415,9.759099960327148,11.321600076675415,9.759099960327148,12.361600076675415C9.759099960327148,13.401600076675415,10.605099960327149,14.246600076675415,11.645099960327148,14.246600076675415C12.685099960327149,14.246600076675415,13.531099960327149,13.401600076675415,13.531099960327149,12.361600076675415C13.531099960327149,11.321600076675415,12.685099960327149,10.474600076675415,11.645099960327148,10.474600076675415ZM11.645099960327148,15.746600076675415C9.778099960327149,15.746600076675415,8.259099960327148,14.228600076675415,8.259099960327148,12.361600076675415C8.259099960327148,10.494600076675415,9.778099960327149,8.974600076675415,11.645099960327148,8.974600076675415C13.512099960327149,8.974600076675415,15.031099960327149,10.494600076675415,15.031099960327149,12.361600076675415C15.031099960327149,14.228600076675415,13.512099960327149,15.746600076675415,11.645099960327148,15.746600076675415Z" fill-rule="evenodd" fill="#130F26" fill-opacity="1"/></g></g></g></svg>