<svg xmlns="http://www.w3.org/2000/svg" xmlns:xlink="http://www.w3.org/1999/xlink" fill="none" version="1.1" width="24" height="24" viewBox="0 0 24 24"><g><g><g><path d="M9.602499824523926,15.136700199127198C9.410499824523926,15.136700199127198,9.218499824523926,15.063700199127197,9.072499824523925,14.916700199127197C8.779499824523926,14.623700199127196,8.779499824523926,14.149700199127198,9.072499824523925,13.856700199127197C9.072499824523925,13.856700199127197,13.864499824523925,9.064700199127197,13.864499824523925,9.064700199127197C14.157499824523926,8.771700199127197,14.631499824523925,8.771700199127197,14.924499824523926,9.064700199127197C15.217499824523927,9.357700199127198,15.217499824523927,9.831700199127198,14.924499824523926,10.124700199127197C14.924499824523926,10.124700199127197,10.132499824523926,14.916700199127197,10.132499824523926,14.916700199127197C9.986499824523925,15.063700199127197,9.794499824523927,15.136700199127198,9.602499824523926,15.136700199127198Z" fill-rule="evenodd" fill="#130F26" fill-opacity="1"/></g><g><path d="M14.396499969482422,15.13960020828247C14.204499969482422,15.13960020828247,14.012499969482421,15.06660020828247,13.866499969482422,14.919600208282471C13.866499969482422,14.919600208282471,9.070499969482421,10.12260020828247,9.070499969482421,10.12260020828247C8.777499969482422,9.829600208282471,8.777499969482422,9.355600208282471,9.070499969482421,9.06260020828247C9.364499969482422,8.76960020828247,9.838499969482422,8.76960020828247,10.130499969482422,9.06260020828247C10.130499969482422,9.06260020828247,14.926499969482421,13.85960020828247,14.926499969482421,13.85960020828247C15.219499969482422,14.152600208282472,15.219499969482422,14.626600208282472,14.926499969482421,14.919600208282471C14.780499969482422,15.06660020828247,14.587499969482423,15.13960020828247,14.396499969482422,15.13960020828247Z" fill-rule="evenodd" fill="#130F26" fill-opacity="1"/></g><g><path d="M7.665,3.5C5.135,3.5,3.5,5.2330000000000005,3.5,7.916C3.5,7.916,3.5,16.084,3.5,16.084C3.5,18.767,5.135,20.5,7.665,20.5C7.665,20.5,16.333,20.5,16.333,20.5C18.864,20.5,20.5,18.767,20.5,16.084C20.5,16.084,20.5,7.916,20.5,7.916C20.5,5.2330000000000005,18.864,3.5,16.334,3.5C16.334,3.5,7.665,3.5,7.665,3.5C7.665,3.5,7.665,3.5,7.665,3.5ZM16.333,22C16.333,22,7.665,22,7.665,22C4.276,22,2,19.622,2,16.084C2,16.084,2,7.916,2,7.916C2,4.378,4.276,2,7.665,2C7.665,2,16.334,2,16.334,2C19.723,2,22,4.378,22,7.916C22,7.916,22,16.084,22,16.084C22,19.622,19.723,22,16.333,22C16.333,22,16.333,22,16.333,22C16.333,22,16.333,22,16.333,22Z" fill-rule="evenodd" fill="#130F26" fill-opacity="1"/></g></g></g></svg>