<svg xmlns="http://www.w3.org/2000/svg" xmlns:xlink="http://www.w3.org/1999/xlink" fill="none" version="1.1" width="24" height="24" viewBox="0 0 24 24"><defs><mask id="master_svg0_0_1012"><g><path d="M2,3.0004000663757324C2,3.0004000663757324,21.499,3.0004000663757324,21.499,3.0004000663757324C21.499,3.0004000663757324,21.499,22.49940006637573,21.499,22.49940006637573C21.499,22.49940006637573,2,22.49940006637573,2,22.49940006637573C2,22.49940006637573,2,3.0004000663757324,2,3.0004000663757324C2,3.0004000663757324,2,3.0004000663757324,2,3.0004000663757324Z" fill-rule="evenodd" fill="#FFFFFF" fill-opacity="1"/></g></mask></defs><g><g mask="url(#master_svg0_0_1012)"><g><path d="M10.80494,14.81777237541508C10.80494,14.81777237541508,14.4619,20.750772375415078,14.4619,20.750772375415078C14.6219,21.01077237541508,14.8719,21.00777237541508,14.9729,20.99377237541508C15.0739,20.97977237541508,15.3169,20.91777237541508,15.4049,20.622772375415078C15.4049,20.622772375415078,19.9779,5.177802375415079,19.9779,5.177802375415079C20.0579,4.90480237541508,19.9109,4.718802375415079,19.8449,4.65280237541508C19.7809,4.586802375415079,19.5979,4.445802375415079,19.3329,4.520802375415079C19.3329,4.520802375415079,3.87695,9.04680237541508,3.87695,9.04680237541508C3.58394,9.132802375415078,3.51994,9.378802375415079,3.50594,9.47980237541508C3.49194,9.58280237541508,3.48794,9.83780237541508,3.74695,10.00080237541508C3.74695,10.00080237541508,9.74794,13.75377237541508,9.74794,13.75377237541508C9.74794,13.75377237541508,15.0499,8.39580237541508,15.0499,8.39580237541508C15.3409,8.10180237541508,15.8159,8.09880237541508,16.1109,8.38980237541508C16.405900000000003,8.68080237541508,16.407899999999998,9.15680237541508,16.1169,9.45080237541508C16.1169,9.45080237541508,10.80494,14.81777237541508,10.80494,14.81777237541508C10.80494,14.81777237541508,10.80494,14.81777237541508,10.80494,14.81777237541508ZM14.8949,22.49977237541508C14.1989,22.49977237541508,13.5609,22.145772375415078,13.1849,21.53777237541508C13.1849,21.53777237541508,9.30794,15.246772375415079,9.30794,15.246772375415079C9.30794,15.246772375415079,2.9519450000000003,11.27180237541508,2.9519450000000003,11.27180237541508C2.2669449999999998,10.84280237541508,1.9089450000000001,10.07880237541508,2.019945,9.27580237541508C2.129945,8.472802375415078,2.680945,7.834802375415079,3.4549399999999997,7.607802375415079C3.4549399999999997,7.607802375415079,18.9109,3.0818000754150794,18.9109,3.0818000754150794C19.6219,2.8737993754150795,20.3839,3.0707999754150794,20.9079,3.5927993754150793C21.4319,4.119802375415079,21.6269,4.889802375415079,21.4149,5.603802375415079C21.4149,5.603802375415079,16.841900000000003,21.04777237541508,16.841900000000003,21.04777237541508C16.6129,21.82477237541508,15.9729,22.37377237541508,15.1719,22.48077237541508C15.0779,22.49277237541508,14.9869,22.49977237541508,14.8949,22.49977237541508C14.8949,22.49977237541508,14.8949,22.49977237541508,14.8949,22.49977237541508C14.8949,22.49977237541508,14.8949,22.49977237541508,14.8949,22.49977237541508Z" fill-rule="evenodd" fill="#130F26" fill-opacity="1"/></g></g></g></svg>